REM COMMENT "Generated by cuetube 0.1.0 - Tue Sep 12 2017 09:16:41 GMT+0200 (Paris, Madrid (heure d’été))"
TITLE "The Matrix Complete Soundtrack"
REM SRC "https://www.youtube.com/watch?v=JcwERjN_4b0"
PERFORMER "Beetlemuse"
FILE "https://www.youtube.com/watch?v=JcwERjN_4b0" MP3
  TRACK 01 MP3
    TITLE "Wake Up"
  PERFORMER Rage Against the Machine
    INDEX 01 00:08:00
  TRACK 02 MP3
    TITLE "Ultrasonic Sound"
  PERFORMER Hive
    INDEX 01 06:12:00
  TRACK 03 MP3
    TITLE "Spybreak!"
  PERFORMER Propellerheads
    INDEX 01 11:08:00
  TRACK 04 MP3
    TITLE "Dragula (Hot Rod Herman Remix)"
  PERFORMER Rob Zombie
    INDEX 01 15:08:00
  TRACK 05 MP3
    TITLE "Prime Audio Soup"
  PERFORMER Meat Beat Manifesto
    INDEX 01 19:47:00
  TRACK 06 MP3
    TITLE "My Own Summer"
  PERFORMER Deftones
    INDEX 01 26:05:00
  TRACK 07 MP3
    TITLE "Look To Your Orb for the Warning"
  PERFORMER Monster Magnet
    INDEX 01 29:42:00
  TRACK 08 MP3
    TITLE "Rock Is Dead"
  PERFORMER Marilyn Manson
    INDEX 01 34:25:00
  TRACK 09 MP3
    TITLE "Bad Blood"
  PERFORMER Ministry
    INDEX 01 37:35:00
  TRACK 10 MP3
    TITLE "Mindfields"
  PERFORMER Prodigy
    INDEX 01 42:36:00
  TRACK 11 MP3
    TITLE "Dissolved Girl"
  PERFORMER Massive Attack
    INDEX 01 48:16:00
  TRACK 12 MP3
    TITLE "Leave You Far Behind"
  PERFORMER Lunatic Calm
    INDEX 01 54:27:00
